<svg width="12px" height="12px" viewBox="0 0 12 12">
	<g stroke="none" stroke-width="1" fill="none" fill-rule="evenodd">
		<g transform="translate(-893.000000, -308.000000)" fill="currentColor" fill-rule="nonzero">
			<path d="M898.46967,313.46967 L899.53033,313.46967 L899,312.93934 L898.46967,313.46967 L897.93934,314 L893.46967,309.53033 C892.762563,308.823223 893.823223,307.762563 894.53033,308.46967 L899,312.93934 L903.46967,308.46967 C904.176777,307.762563 905.237437,308.823223 904.53033,309.53033 L900.06066,314 L904.53033,318.46967 C905.237437,319.176777 904.176777,320.237437 903.46967,319.53033 L899,315.06066 L894.53033,319.53033 C893.823223,320.237437 892.762563,319.176777 893.46967,318.46967 L897.93934,314 L898.46967,313.46967 Z M899.53033,313.46967 L899,312.93934 L898.46967,313.46967 L899.53033,313.46967 C899.237437,313.176777 898.762563,313.176777 898.46967,313.46967 L899.53033,313.46967 Z">
			</path>
		</g>
	</g>
</svg>
